<?xml version="1.0" encoding="UTF-8" standalone="no"?>
<!-- Created with Inkscape (http://www.inkscape.org/) -->

<svg
   width="210mm"
   height="210mm"
   viewBox="0 0 210 210"
   version="1.1"
   id="svg1"
   xml:space="preserve"
   xmlns="http://www.w3.org/2000/svg"
   xmlns:svg="http://www.w3.org/2000/svg"><defs
     id="defs1" /><g
     id="layer1"><path
       style="fill:#00000011;fill-opacity:1;stroke-width:1.08811"
       d="m 178.61975,181.44728 c -14.48607,-8.65192 -26.75967,-18.46325 -33.39081,-26.69208 -5.49767,-6.82227 -10.06382,-16.31068 -14.13782,-29.37822 -0.69111,-2.2168 -1.22311,-4.06832 -1.18221,-4.11447 0.0409,-0.0462 1.36093,0.36932 2.93338,0.9233 3.76901,1.32784 9.67552,1.6398 13.60714,0.71871 4.7103,-1.10355 8.01612,-3.02107 11.94638,-6.92942 2.99174,-2.97509 3.75699,-4.01096 5.25726,-7.11639 2.32191,-4.80623 3.10966,-8.72857 2.8427,-14.15436 -0.23376,-4.75085 -0.94194,-7.614631 -2.83031,-11.445395 -2.58819,-5.25038 -8.35793,-10.832341 -13.0483,-12.623603 l -1.79131,-0.684107 -4.51092,4.777117 -4.51091,4.777118 2.4491,0.255216 c 6.20415,0.646534 11.07949,4.73418 13.22635,11.089429 0.68744,2.03501 0.80981,3.121914 0.68915,6.121066 -0.12507,3.108399 -0.32543,4.027649 -1.35728,6.227519 -4.61359,9.83594 -16.38007,12.36359 -24.16199,5.19044 -2.98838,-2.7546 -5.1204,-7.51972 -5.1204,-11.44429 v -1.877255 l -7.75456,8.341125 c -4.26501,4.58764 -8.64195,9.29121 -9.72652,10.45239 -1.08459,1.16119 -5.47648,5.91147 -9.759776,10.5562 -4.283299,4.64473 -8.345417,9.02156 -9.026912,9.7263 l -1.239121,1.28135 -10.068676,-14.62053 c -5.537772,-8.04129 -10.15114,-14.62056 -10.251942,-14.62056 -0.100759,0 -1.046199,0.28224 -2.100873,0.62721 -3.822113,1.25015 -7.805017,0.0779 -10.626592,-3.12756 -3.545795,-4.028238 -3.746615,-10.157019 -0.48299,-14.740354 l 0.75674,-1.062748 -2.110653,-3.035887 C 51.976217,83.1748 50.873376,81.75514 50.686318,81.689723 c -0.47648,-0.166612 -3.204422,3.368491 -4.222924,5.472432 -1.316426,2.719376 -1.919736,5.498067 -1.924707,8.864697 -0.0083,5.620028 1.87983,10.386288 5.555856,14.024838 4.048075,4.00682 8.116071,5.56893 13.676628,5.25189 2.114223,-0.12056 3.410807,-0.0508 3.410807,0.1835 0,1.63637 -4.756323,14.95617 -7.644259,21.40732 -7.094579,15.84801 -15.356142,23.03419 -33.089158,28.78201 -4.253149,1.37858 -5.40573,1.46143 -3.017869,0.21696 2.30043,-1.1989 5.02674,-4.16885 6.492716,-7.07292 2.026857,-4.01519 2.748594,-7.81105 2.986302,-15.70598 l 0.211412,-7.02159 -1.874765,1.14649 c -2.491776,1.52381 -5.840767,2.59518 -10.196797,3.26204 -5.282044,0.80862 -10.423722,1.1323 -10.117559,0.63691 0.138305,-0.22378 0.543561,-0.41068 0.900568,-0.41532 2.305415,-0.0299 7.006432,-3.75977 9.66558,-7.6688 2.815785,-4.13925 6.765339,-13.33305 7.83288,-18.23342 l 0.250873,-1.15158 -5.863082,-0.0158 c -5.565512,-0.0151 -6.022164,-0.075 -8.997497,-1.18103 -3.766909,-1.4003 -6.7978277,-3.18101 -9.4497854,-5.55196 l -1.9670892,-1.75864 3.2801674,0.17216 c 5.3379312,0.28018 9.5074992,-1.44907 14.5883152,-6.050215 l 2.414065,-2.186158 -4.563287,-0.244553 c -4.622959,-0.247742 -6.268005,-0.723464 -4.041583,-1.168752 2.73706,-0.547407 7.871058,-6.751888 13.067393,-15.792044 2.555292,-4.445492 8.935331,-17.344665 8.935331,-18.065485 0,-0.232432 -4.623655,-7.114196 -10.27479,-15.292788 -5.651135,-8.178596 -10.208203,-14.936762 -10.126819,-15.018146 0.08138,-0.08138 2.646581,1.782555 5.700437,4.142088 3.053857,2.359532 8.748116,6.582111 12.65391,9.383509 l 7.101443,5.093451 0.238117,-3.548074 c 0.130965,-1.951442 0.399592,-3.952167 0.596951,-4.446057 0.327974,-0.820756 0.501078,-0.622691 2.012899,2.303172 1.695298,3.280948 5.848627,10.416447 6.67229,11.463124 0.641793,0.815561 8.505762,5.365121 9.273676,5.365121 0.11398,0 0.219363,-1.943302 0.234205,-4.318445 0.03928,-6.279394 0.281516,-6.451165 2.195549,-1.556522 0.892034,2.281172 2.181981,5.268073 2.866544,6.637549 1.184269,2.369163 1.356376,2.532728 3.547822,3.371673 4.646718,1.778889 7.967636,2.477925 12.696942,2.672643 5.385038,0.221703 8.865463,-0.4647 13.713275,-2.704525 2.777523,-1.283292 2.927366,-1.423408 4.735089,-4.427577 1.02673,-1.706279 2.01625,-3.108453 2.19892,-3.115939 0.18267,-0.0076 0.21343,0.93644 0.0683,2.09763 -0.14508,1.161178 -0.16313,2.111231 -0.0401,2.111231 0.12302,0 2.89125,-1.278989 6.15164,-2.842204 l 5.92795,-2.842203 2.724,-4.133042 c 1.49819,-2.273169 3.62223,-5.744273 4.72008,-7.713563 1.09784,-1.96929 2.14939,-3.580719 2.33678,-3.580954 0.42249,-5.31e-4 -1.7e-4,5.477572 -0.67375,8.732428 -0.27307,1.319524 -0.43737,2.399136 -0.36509,2.399136 0.55206,0 12.68659,-6.370536 13.06589,-6.859494 0.78698,-1.014519 8.16887,-15.853197 8.16887,-16.420639 0,-0.285614 0.16608,-0.519299 0.36906,-0.519299 0.6697,0 1.29644,3.194741 1.52099,7.753062 l 0.22118,4.490236 26.80445,-13.640857 c 14.74244,-7.50247 26.86799,-13.577295 26.94568,-13.49961 0.0777,0.07769 -6.1976,6.976103 -13.94507,15.329815 -7.74747,8.353714 -15.70499,16.944308 -17.68337,19.090207 l -3.59705,3.901637 2.97285,5.08171 c 9.84029,16.820674 19.2673,28.598129 24.43326,30.525208 l 2.04884,0.764279 -4.057,0.276522 c -4.90106,0.33406 -10.85084,-0.242671 -16.01319,-1.552215 -2.03968,-0.517396 -3.76394,-0.940726 -3.8317,-0.940726 -0.2536,0 2.38797,3.629844 5.25604,7.222474 8.37626,10.492381 16.21235,16.761301 22.68724,18.149921 1.20495,0.25842 3.07892,0.33277 4.56062,0.18097 l 2.51523,-0.25769 -1.71843,1.57118 c -2.73711,2.50255 -7.20342,5.2905 -10.53146,6.57393 -4.94252,1.90604 -7.75806,2.35113 -13.73885,2.17192 -4.27399,-0.12807 -5.2781,-0.0587 -5.2781,0.36436 0,0.94638 3.14376,10.21224 4.6214,13.62096 2.1677,5.00068 4.85642,9.29229 7.80852,12.46366 2.80872,3.01735 4.92627,4.4714 8.07831,5.54716 l 1.94768,0.66471 -2.22233,0.0269 c -2.8426,0.0345 -8.85788,-0.62321 -12.55635,-1.37275 -4.03116,-0.81699 -7.16981,-1.90456 -9.35787,-3.24263 -1.02992,-0.62982 -1.93201,-1.0857 -2.00463,-1.01307 -0.21492,0.21491 1.63885,8.78108 3.11245,14.38256 2.36492,8.98955 5.22515,15.80602 8.22445,19.60042 0.8684,1.09861 1.44534,1.99303 1.28207,1.9876 -0.16324,-0.006 -2.57574,-1.37096 -5.36109,-3.03453 z"
       id="path1" /></g></svg>
